<svg xmlns="http://www.w3.org/2000/svg" width="1100" height="280" viewBox="200 616 1100 280" fill="none">
<path d="M850.585 735.268H829.447C827.496 733.317 826.385 730.39 826.114 726.379C820.965 733.615 814.027 737.219 804.976 737.219C789.827 737.219 780.64 728.195 780.64 715.268C780.64 702.342 791.344 694.97 807.604 692.342L825.111 689.55V688.304C825.111 681.637 821.507 678.304 814.406 678.304C808.146 678.304 803.837 680.662 803.837 684.564C803.837 684.971 803.837 685.404 803.973 685.811L785.057 692.206C784.352 689.415 783.946 687.193 783.946 685.54C783.946 679.28 786.873 674.131 792.564 670.255C798.39 666.353 805.626 664.429 814.379 664.429C835.382 664.429 845.924 673.182 845.924 690.553V718.222C845.924 725.16 847.441 730.878 850.504 735.322L850.585 735.268ZM809.284 721.095C814 721.095 817.767 719.415 820.666 716.081C823.593 712.613 825.111 708.71 825.111 704.266V703.019L810.368 705.512C804.108 706.488 800.911 709.252 800.911 713.859C800.911 717.762 804.244 721.095 809.257 721.095H809.284Z" fill="#1A1E20"></path>
<path d="M776.846 698.845V705.945H725.844C726.955 714.292 733.892 719.414 742.374 719.414C749.746 719.414 755.572 715.81 759.881 708.574L774.894 717.056C768.363 730.552 757.252 737.219 741.534 737.219C731.941 737.219 723.594 733.75 716.521 726.921C709.584 720.118 706.088 711.365 706.088 700.796C706.088 690.227 709.556 681.338 716.521 674.536C723.459 667.734 732.239 664.401 742.944 664.401C753.079 664.401 761.155 667.734 767.415 674.401C773.675 680.932 776.873 689.143 776.873 698.872L776.846 698.845ZM742.51 680.498C734.868 680.498 728.879 684.536 726.656 691.338H758.065C756.385 684.536 750.423 680.498 742.51 680.498Z" fill="#1A1E20"></path>
<path d="M668.96 682.449H658.96V666.325H668.96V647.707H689.8V666.325H704.109V682.449H689.8V709.685C689.8 715.24 692.591 718.574 697.442 718.574C699.8 718.574 702.022 718.167 703.973 717.462L705.925 734.834C701.751 736.351 697.171 737.191 692.022 737.191C685.491 737.191 680.071 735.376 675.627 731.636C671.182 727.896 668.96 722.042 668.96 713.831V682.422V682.449Z" fill="#1A1E20"></path>
<path d="M627.281 676.325C648.825 680.905 658.419 689.821 658.419 705.918C658.419 714.807 655.221 722.313 648.69 728.303C642.159 734.292 633.27 737.191 621.861 737.191C599.07 737.191 584.896 726.622 579.178 705.647L598.23 696.46C601.698 710.362 608.663 717.436 621.861 717.436C630.614 717.436 636.305 713.127 636.305 707.436C636.305 700.2 629.503 695.891 614.49 693.127C594.056 689.089 583.921 679.36 583.921 663.94C583.921 655.458 587.119 648.791 593.514 643.642C599.91 638.493 608.392 636 618.961 636C638.012 636 649.963 644.211 656.766 661.447L639.936 671.447C636.034 660.038 628.961 654.347 618.527 654.347C610.181 654.347 604.219 658.087 604.219 663.669C604.219 669.252 610.479 672.856 627.281 676.325Z" fill="#1A1E20"></path>
<path d="M1287.3 698.845V705.945H1236.3C1237.41 714.292 1244.35 719.414 1252.83 719.414C1260.2 719.414 1266.03 715.81 1270.34 708.574L1285.35 717.056C1278.82 730.552 1267.71 737.219 1251.99 737.219C1242.4 737.219 1234.05 733.75 1226.98 726.921C1220.04 720.118 1216.54 711.365 1216.54 700.796C1216.54 690.227 1220.01 681.338 1226.98 674.536C1233.91 667.734 1242.69 664.401 1253.4 664.401C1263.53 664.401 1271.61 667.734 1277.87 674.401C1284.13 680.932 1287.33 689.143 1287.33 698.872L1287.3 698.845ZM1252.97 680.498C1245.32 680.498 1239.36 684.536 1237.11 691.338H1268.52C1266.84 684.536 1260.88 680.498 1252.94 680.498H1252.97Z" fill="#1A1E20"></path>
<path d="M1175.7 683.832C1175.7 687.301 1180.58 689.388 1190.45 691.61C1206.98 695.079 1213.94 701.61 1213.94 713.724C1213.94 720.526 1211.31 726.081 1206.03 730.553C1200.88 734.997 1194.08 737.219 1185.73 737.219C1170.01 737.219 1158.9 729.984 1152.64 715.675L1168.63 705.81C1172.37 715.404 1178.22 720.255 1186 720.255C1191.42 720.255 1194.75 718.168 1194.75 714.835C1194.75 710.797 1191.02 708.71 1181.56 706.922C1167.25 704.13 1157.38 696.624 1157.38 684.808C1157.38 678.548 1159.88 673.561 1164.89 669.93C1170.04 666.19 1176.14 664.375 1183.51 664.375C1198.66 664.375 1206.73 669.795 1212.97 682.017L1197.95 690.77C1195.59 683.128 1190.04 679.09 1183.78 679.09C1178.36 679.09 1175.7 680.607 1175.7 683.805V683.832Z" fill="#1A1E20"></path>
<path d="M1080.18 708.005V666.298H1101.02V703.398C1101.02 712.286 1105.46 717.435 1113.24 717.435C1122.29 717.435 1127.14 710.064 1127.14 699.495V666.271H1147.98V735.213H1127.14V725.213C1122.56 732.855 1116.87 737.164 1105.73 737.164C1098.36 737.164 1092.26 734.535 1087.38 729.386C1082.53 724.102 1080.15 717.029 1080.15 707.977L1080.18 708.005Z" fill="#1A1E20"></path>
<path d="M1063.43 674.103C1070.93 680.364 1074.67 689.252 1074.67 700.797C1074.67 712.342 1070.91 721.23 1063.43 727.626C1055.92 734.022 1046.9 737.219 1036.33 737.219C1025.76 737.219 1016.87 734.022 1009.36 727.626C1001.99 721.23 998.252 712.342 998.252 700.797C998.252 689.252 1002.02 680.364 1009.36 673.968C1016.87 667.572 1025.89 664.375 1036.33 664.375C1046.76 664.375 1055.92 667.572 1063.43 674.103ZM1024.38 713.019C1027.71 715.946 1031.75 717.463 1036.33 717.463C1040.91 717.463 1045.08 715.946 1048.41 713.019C1051.88 709.957 1053.56 705.919 1053.56 700.797C1053.56 695.675 1051.88 691.637 1048.41 688.71C1045.08 685.648 1041.04 684.13 1036.33 684.13C1031.61 684.13 1027.71 685.648 1024.38 688.71C1021.04 691.637 1019.36 695.648 1019.36 700.797C1019.36 705.946 1021.04 709.984 1024.38 713.019Z" fill="#1A1E20"></path>
<path d="M992.48 688.277V735.268H971.641V698.439C971.641 689.686 967.061 684.131 958.714 684.131C950.367 684.131 943.836 691.366 943.836 702.071V735.295H922.996V637.952H943.836V675.892C949.825 668.25 957.738 664.348 967.467 664.348C982.616 664.348 992.48 673.67 992.48 688.25V688.277Z" fill="#1A1E20"></path>
<path d="M651.969 824.535H605.113V862.259H582.728V765.539H655.98V785.159H605.14V805.484H651.996V824.562L651.969 824.535ZM684.841 862.259H664.11V793.723H684.841V862.259ZM685.654 785.701H663.27V763.587H685.654V785.701ZM762.049 815.565V862.259H741.318V824.942C741.318 816.785 737.307 811.392 729.15 811.392C720.993 811.392 715.329 818.302 715.329 829.224V862.259H694.597V793.723H715.329V803.533C720.993 795.647 728.31 791.799 737.578 791.799C752.916 791.799 762.049 801.338 762.049 815.565ZM837.36 862.259H816.357C814.433 860.334 813.322 857.435 813.051 853.424C807.929 860.605 801.019 864.21 792.049 864.21C776.981 864.21 767.876 855.24 767.876 842.367C767.876 829.495 778.526 822.205 794.677 819.576L812.076 816.812V815.565C812.076 808.926 808.471 805.619 801.425 805.619C795.219 805.619 790.911 807.977 790.911 811.825C790.911 812.232 790.911 812.665 791.046 813.072L772.266 819.44C771.588 816.676 771.155 814.454 771.155 812.801C771.155 806.595 774.054 801.473 779.718 797.598C785.518 793.723 792.699 791.799 801.425 791.799C822.292 791.799 832.807 800.498 832.807 817.787V845.294C832.807 852.204 834.325 857.868 837.36 862.286V862.259ZM796.303 848.167C800.992 848.167 804.732 846.513 807.631 843.18C810.531 839.738 812.049 835.863 812.049 831.446V830.199L797.387 832.692C791.182 833.668 787.984 836.432 787.984 840.985C787.984 844.86 791.29 848.167 796.276 848.167H796.303ZM909.717 815.565V862.259H888.985V824.942C888.985 816.785 884.975 811.392 876.818 811.392C868.66 811.392 862.996 818.302 862.996 829.224V862.259H842.265V793.723H862.996V803.533C868.66 795.647 875.977 791.799 885.246 791.799C900.584 791.799 909.717 801.338 909.717 815.565ZM967.711 833.234L984.838 844.291C978.199 857.57 967.277 864.183 952.101 864.183C941.614 864.183 932.887 860.876 925.841 854.237C918.931 847.462 915.489 838.763 915.489 827.977C915.489 817.191 919.093 808.763 926.275 801.988C933.456 795.213 942.02 791.771 952.128 791.771C967.196 791.771 977.819 797.977 984.052 810.416L967.331 821.609C963.89 814.427 958.903 810.823 952.128 810.823C942.86 810.823 936.519 817.462 936.519 827.95C936.519 838.438 942.589 845.077 951.993 845.077C958.903 845.077 964.161 841.066 967.738 833.18L967.711 833.234ZM1011.48 862.259H990.746V793.723H1011.48V862.259ZM1012.32 785.701H989.933V763.587H1012.32V785.701ZM1087.19 862.259H1066.19C1064.27 860.334 1063.16 857.435 1062.89 853.424C1057.76 860.605 1050.85 864.21 1041.88 864.21C1026.82 864.21 1017.71 855.24 1017.71 842.367C1017.71 829.495 1028.36 822.205 1044.51 819.576L1061.91 816.812V815.565C1061.91 808.926 1058.33 805.619 1051.26 805.619C1045.05 805.619 1040.77 807.977 1040.77 811.825C1040.77 812.232 1040.77 812.665 1040.91 813.072L1022.13 819.44C1021.42 816.676 1021.02 814.454 1021.02 812.801C1021.02 806.595 1023.92 801.473 1029.58 797.598C1035.38 793.723 1042.56 791.799 1051.29 791.799C1072.15 791.799 1082.64 800.498 1082.64 817.787V845.294C1082.64 852.204 1084.16 857.868 1087.19 862.286V862.259ZM1046.17 848.167C1050.85 848.167 1054.59 846.513 1057.49 843.18C1060.39 839.738 1061.91 835.863 1061.91 831.446V830.199L1047.28 832.692C1041.07 833.668 1037.87 836.432 1037.87 840.985C1037.87 844.86 1041.18 848.167 1046.17 848.167ZM1112.99 862.259H1092.26V765.539H1112.99V862.259Z" fill="#1A1E20"></path>
<path d="M876.519 684.537L894.866 666.326H913.321V673.399L895.679 690.635L913.321 718.114V735.241H899.717L880.666 705.35L876.492 709.523V735.241H855.652V637.952H876.492V684.51L876.519 684.537ZM924.324 735.268H922.969V733.154L924.324 735.268Z" fill="#1A1E20"></path>
<path d="M534.598 621.691L473.949 682.341C467.119 689.17 458.773 694.129 449.721 696.921C444.22 698.601 438.448 699.468 432.594 699.468H319.668C313.815 699.468 308.042 698.601 302.541 696.921C293.463 694.129 285.143 689.17 278.314 682.341C258.07 662.097 237.881 641.908 217.664 621.664C215.767 619.767 213.87 617.897 212 616C212.434 620.146 213.03 624.591 213.924 629.279C215.604 638.249 218.206 648.168 222.244 658.574C223.87 662.775 225.631 666.785 227.501 670.634C232.244 680.39 237.637 689.007 243.246 696.622C253.815 710.931 268.178 721.663 284.384 727.923C295.034 732.042 306.498 734.21 318.205 734.21H434.03C445.738 734.21 457.201 732.015 467.851 727.923C484.057 721.663 498.393 710.958 508.989 696.622C514.599 689.035 519.992 680.39 524.734 670.661C526.604 666.812 528.365 662.802 529.991 658.601C534.029 648.195 536.658 638.303 538.311 629.306C539.205 624.618 539.802 620.173 540.235 616.027C538.338 617.924 536.441 619.821 534.571 621.691H534.598ZM224.602 744.806L264.493 784.725H327.663L296.091 816.296L320.644 840.849L376.768 784.725H486.496L526.414 744.806C512.837 731.256 490.859 731.229 477.282 744.806L472.106 749.982H278.883L273.707 744.806C266.932 738.031 258.043 734.644 249.154 734.644C240.265 734.644 231.377 738.031 224.602 744.806ZM385.521 800.497L332.351 852.583L355.251 875.483C366.416 886.648 384.546 886.648 395.711 875.483L470.697 800.497H385.521Z" fill="#1A1E20"></path>
</svg>